<svg xmlns="http://www.w3.org/2000/svg" xmlns:xlink="http://www.w3.org/1999/xlink" viewBox="0 0 500 500"><defs><style>.cls-1{isolation:isolate;}.cls-10,.cls-11,.cls-12,.cls-13,.cls-14,.cls-15,.cls-16,.cls-17,.cls-18,.cls-19,.cls-2,.cls-20,.cls-21,.cls-22,.cls-23,.cls-24,.cls-25,.cls-26,.cls-27,.cls-28,.cls-29,.cls-3,.cls-30,.cls-31,.cls-32,.cls-33,.cls-34,.cls-35,.cls-36,.cls-37,.cls-38,.cls-39,.cls-4,.cls-40,.cls-41,.cls-5,.cls-6,.cls-7,.cls-8,.cls-9{fill-rule:evenodd;}.cls-2{fill:url(#Áåçûìÿííûé_ãðàäèåíò_64);}.cls-3{fill:url(#Áåçûìÿííûé_ãðàäèåíò_59);}.cls-4{fill:url(#Áåçûìÿííûé_ãðàäèåíò_50);}.cls-11,.cls-26,.cls-5{opacity:0.5;}.cls-11,.cls-22,.cls-24,.cls-27,.cls-29,.cls-31,.cls-34,.cls-40,.cls-41,.cls-5,.cls-6{mix-blend-mode:multiply;}.cls-5{fill:url(#Áåçûìÿííûé_ãðàäèåíò_21);}.cls-6{opacity:0.89;fill:url(#Áåçûìÿííûé_ãðàäèåíò_19);}.cls-26,.cls-7{mix-blend-mode:screen;}.cls-7{fill:url(#Áåçûìÿííûé_ãðàäèåíò_600);}.cls-8{fill:url(#Áåçûìÿííûé_ãðàäèåíò_10);}.cls-9{fill:url(#Áåçûìÿííûé_ãðàäèåíò_31);}.cls-10{fill:url(#Áåçûìÿííûé_ãðàäèåíò_35);}.cls-11{fill:url(#Áåçûìÿííûé_ãðàäèåíò_21-2);}.cls-12{fill:url(#Áåçûìÿííûé_ãðàäèåíò_107);}.cls-13{fill:url(#Áåçûìÿííûé_ãðàäèåíò_69);}.cls-14{fill:url(#Áåçûìÿííûé_ãðàäèåíò_39);}.cls-15{fill:url(#Áåçûìÿííûé_ãðàäèåíò_182);}.cls-16{fill:url(#Áåçûìÿííûé_ãðàäèåíò_73);}.cls-17{fill:url(#Áåçûìÿííûé_ãðàäèåíò_58);}.cls-18{fill:url(#Áåçûìÿííûé_ãðàäèåíò_144);}.cls-19{fill:url(#Áåçûìÿííûé_ãðàäèåíò_200);}.cls-20{fill:url(#Áåçûìÿííûé_ãðàäèåíò_107-2);}.cls-21{fill:url(#Áåçûìÿííûé_ãðàäèåíò_212);}.cls-22,.cls-24,.cls-27,.cls-29,.cls-31{opacity:0.4;}.cls-22{fill:url(#Áåçûìÿííûé_ãðàäèåíò_271);}.cls-23{fill:url(#Áåçûìÿííûé_ãðàäèåíò_212-2);}.cls-24{fill:url(#Áåçûìÿííûé_ãðàäèåíò_271-2);}.cls-25{fill:url(#Áåçûìÿííûé_ãðàäèåíò_224);}.cls-26{fill:url(#Áåçûìÿííûé_ãðàäèåíò_234);}.cls-27{fill:url(#Áåçûìÿííûé_ãðàäèåíò_271-3);}.cls-28{fill:url(#Áåçûìÿííûé_ãðàäèåíò_253);}.cls-29{fill:url(#Áåçûìÿííûé_ãðàäèåíò_226);}.cls-30{fill:url(#Áåçûìÿííûé_ãðàäèåíò_250);}.cls-31{fill:url(#Áåçûìÿííûé_ãðàäèåíò_226-2);}.cls-32{fill:#e5bdfa;}.cls-33{fill:#ffa5f7;}.cls-34,.cls-40,.cls-41{opacity:0.71;}.cls-34{fill:url(#Áåçûìÿííûé_ãðàäèåíò_16);}.cls-35{fill:url(#Áåçûìÿííûé_ãðàäèåíò_50-2);}.cls-36{fill:url(#Áåçûìÿííûé_ãðàäèåíò_35-2);}.cls-37{fill:url(#Áåçûìÿííûé_ãðàäèåíò_107-3);}.cls-38{fill:url(#Áåçûìÿííûé_ãðàäèåíò_159);}.cls-39{fill:url(#Áåçûìÿííûé_ãðàäèåíò_165);}.cls-40{fill:url(#Áåçûìÿííûé_ãðàäèåíò_16-2);}.cls-41{fill:url(#Áåçûìÿííûé_ãðàäèåíò_16-3);}</style><linearGradient id="Áåçûìÿííûé_ãðàäèåíò_64" x1="398.09" y1="172.93" x2="415.03" y2="65.96" gradientUnits="userSpaceOnUse"><stop offset="0" stop-color="#8931b3"/><stop offset="1" stop-color="#8e8cff"/></linearGradient><linearGradient id="Áåçûìÿííûé_ãðàäèåíò_59" x1="317.92" y1="379.26" x2="323.79" y2="342.17" gradientTransform="matrix(-0.98, -0.17, 0.17, -0.98, 634.13, 867.39)" gradientUnits="userSpaceOnUse"><stop offset="0" stop-color="#8e8cff"/><stop offset="1" stop-color="#8931b3"/></linearGradient><radialGradient id="Áåçûìÿííûé_ãðàäèåíò_50" cx="182.52" cy="151.89" r="298.92" gradientUnits="userSpaceOnUse"><stop offset="0.01" stop-color="#ffb8e2"/><stop offset="0.22" stop-color="#fdb7e3"/><stop offset="0.33" stop-color="#f5b5e5"/><stop offset="0.42" stop-color="#e8b0e9"/><stop offset="0.49" stop-color="#d5aaef"/><stop offset="0.55" stop-color="#bda2f7"/><stop offset="0.58" stop-color="#ae9dfc"/><stop offset="0.64" stop-color="#a996fc"/><stop offset="0.72" stop-color="#9a83fd"/><stop offset="0.81" stop-color="#8163fe"/><stop offset="0.91" stop-color="#5f38ff"/><stop offset="0.92" stop-color="#5e37ff"/><stop offset="0.99" stop-color="#5e9aff"/></radialGradient><linearGradient id="Áåçûìÿííûé_ãðàäèåíò_21" x1="59.13" y1="132.19" x2="142.09" y2="132.19" gradientUnits="userSpaceOnUse"><stop offset="0" stop-color="#fff"/><stop offset="0.17" stop-color="#dbd0ea"/><stop offset="0.36" stop-color="#b9a3d7"/><stop offset="0.55" stop-color="#9f80c7"/><stop offset="0.72" stop-color="#8c67bc"/><stop offset="0.87" stop-color="#8057b5"/><stop offset="1" stop-color="#7c52b3"/></linearGradient><linearGradient id="Áåçûìÿííûé_ãðàäèåíò_19" x1="288.96" y1="269.47" x2="433.01" y2="269.47" gradientUnits="userSpaceOnUse"><stop offset="0" stop-color="#7c52b3"/><stop offset="0.13" stop-color="#8057b5"/><stop offset="0.28" stop-color="#8c67bc"/><stop offset="0.45" stop-color="#9f80c7"/><stop offset="0.64" stop-color="#b9a3d7"/><stop offset="0.83" stop-color="#dbd0ea"/><stop offset="1" stop-color="#fff"/></linearGradient><radialGradient id="Áåçûìÿííûé_ãðàäèåíò_600" cx="104.93" cy="85.89" r="260.92" gradientUnits="userSpaceOnUse"><stop offset="0" stop-color="#ffffd9"/><stop offset="1"/></radialGradient><linearGradient id="Áåçûìÿííûé_ãðàäèåíò_10" x1="173.71" y1="437.52" x2="188.48" y2="344.32" gradientUnits="userSpaceOnUse"><stop offset="0" stop-color="#6d109d"/><stop offset="1" stop-color="#8e8cff"/></linearGradient><linearGradient id="Áåçûìÿííûé_ãðàäèåíò_31" x1="114.88" y1="145.5" x2="49.48" y2="88.65" gradientUnits="userSpaceOnUse"><stop offset="0" stop-color="#c98eff"/><stop offset="1" stop-color="#8931b3"/></linearGradient><linearGradient id="Áåçûìÿííûé_ãðàäèåíò_35" x1="395.03" y1="296.61" x2="273.03" y2="226.18" gradientTransform="translate(46.95 -40.41) rotate(7.41)" gradientUnits="userSpaceOnUse"><stop offset="0" stop-color="#5400b3"/><stop offset="1" stop-color="#f2c0ff"/></linearGradient><linearGradient id="Áåçûìÿííûé_ãðàäèåíò_21-2" x1="203.62" y1="77.85" x2="297.3" y2="77.85" xlink:href="#Áåçûìÿííûé_ãðàäèåíò_21"/><linearGradient id="Áåçûìÿííûé_ãðàäèåíò_107" x1="345.15" y1="347.46" x2="345.15" y2="182.15" gradientTransform="translate(46.95 -40.41) rotate(7.41)" gradientUnits="userSpaceOnUse"><stop offset="0" stop-color="#644ff7"/><stop offset="1" stop-color="#9f6dff"/></linearGradient><linearGradient id="Áåçûìÿííûé_ãðàäèåíò_69" x1="306.28" y1="326.26" x2="393.53" y2="219.29" gradientUnits="userSpaceOnUse"><stop offset="0" stop-color="#935ce1"/><stop offset="0.22" stop-color="#8f5ae0"/><stop offset="0.43" stop-color="#8454dc"/><stop offset="0.63" stop-color="#714ad5"/><stop offset="0.82" stop-color="#573ccc"/><stop offset="0.99" stop-color="#392cc2"/></linearGradient><radialGradient id="Áåçûìÿííûé_ãðàäèåíò_39" cx="575.34" cy="274.22" r="74.34" gradientTransform="translate(139.25 695.72) rotate(-109.29)" gradientUnits="userSpaceOnUse"><stop offset="0" stop-color="#dea5ff"/><stop offset="1" stop-color="#8931b3"/></radialGradient><linearGradient id="Áåçûìÿííûé_ãðàäèåíò_182" x1="581.98" y1="362.2" x2="581.98" y2="274.98" gradientTransform="translate(139.25 695.72) rotate(-109.29)" gradientUnits="userSpaceOnUse"><stop offset="0" stop-color="#c287f8"/><stop offset="1" stop-color="#ccb3ff"/></linearGradient><linearGradient id="Áåçûìÿííûé_ãðàäèåíò_73" x1="247.97" y1="66.64" x2="247.97" y2="16.36" gradientUnits="userSpaceOnUse"><stop offset="0" stop-color="#9f6dff"/><stop offset="0.27" stop-color="#9b69ff"/><stop offset="0.52" stop-color="#905efd"/><stop offset="0.76" stop-color="#7e4bfb"/><stop offset="1" stop-color="#6431f7"/><stop offset="1" stop-color="#6431f7"/></linearGradient><linearGradient id="Áåçûìÿííûé_ãðàäèåíò_58" x1="60.22" y1="144.7" x2="60.22" y2="66.29" gradientUnits="userSpaceOnUse"><stop offset="0" stop-color="#fc9ff7"/><stop offset="1" stop-color="#f66dff"/></linearGradient><linearGradient id="Áåçûìÿííûé_ãðàäèåíò_144" x1="150.04" y1="444.34" x2="150.04" y2="378.77" gradientUnits="userSpaceOnUse"><stop offset="0" stop-color="#c282f7"/><stop offset="1" stop-color="#dc6dff"/></linearGradient><linearGradient id="Áåçûìÿííûé_ãðàäèåíò_200" x1="147.98" y1="439.48" x2="147.98" y2="389.33" gradientUnits="userSpaceOnUse"><stop offset="0" stop-color="#4848f7"/><stop offset="1" stop-color="#6d20ff"/></linearGradient><linearGradient id="Áåçûìÿííûé_ãðàäèåíò_107-2" x1="159.73" y1="423.12" x2="159.73" y2="392.28" gradientTransform="matrix(1, 0, 0, 1, 0, 0)" xlink:href="#Áåçûìÿííûé_ãðàäèåíò_107"/><linearGradient id="Áåçûìÿííûé_ãðàäèåíò_212" x1="82.16" y1="275.78" x2="116.33" y2="297.39" gradientUnits="userSpaceOnUse"><stop offset="0" stop-color="#9084ff"/><stop offset="0.49" stop-color="#d08bfc"/><stop offset="1" stop-color="#ffc9f8"/></linearGradient><radialGradient id="Áåçûìÿííûé_ãðàäèåíò_271" cx="99.53" cy="283.32" r="16.43" gradientUnits="userSpaceOnUse"><stop offset="0" stop-color="#1372b3"/><stop offset="1" stop-color="#fff"/></radialGradient><linearGradient id="Áåçûìÿííûé_ãðàäèåíò_212-2" x1="134.14" y1="111.74" x2="149.89" y2="121.7" gradientTransform="translate(27.32 -23.32) rotate(4.82)" xlink:href="#Áåçûìÿííûé_ãðàäèåíò_212"/><radialGradient id="Áåçûìÿííûé_ãðàäèåíò_271-2" cx="142.15" cy="115.22" r="7.57" gradientTransform="translate(27.32 -23.32) rotate(4.82)" xlink:href="#Áåçûìÿííûé_ãðàäèåíò_271"/><linearGradient id="Áåçûìÿííûé_ãðàäèåíò_224" x1="317.81" y1="379.67" x2="282.8" y2="378.94" gradientUnits="userSpaceOnUse"><stop offset="0" stop-color="#9566fc"/><stop offset="1" stop-color="#5445b1"/></linearGradient><radialGradient id="Áåçûìÿííûé_ãðàäèåíò_234" cx="197.08" cy="292.04" r="37.01" gradientUnits="userSpaceOnUse"><stop offset="0" stop-color="#ffffe8"/><stop offset="0.2" stop-color="#bba"/><stop offset="0.42" stop-color="#79796e"/><stop offset="0.61" stop-color="#45453f"/><stop offset="0.78" stop-color="#1f1f1d"/><stop offset="0.91" stop-color="#080808"/><stop offset="1"/></radialGradient><radialGradient id="Áåçûìÿííûé_ãðàäèåíò_271-3" cx="300.24" cy="376.77" r="14.6" xlink:href="#Áåçûìÿííûé_ãðàäèåíò_271"/><linearGradient id="Áåçûìÿííûé_ãðàäèåíò_253" x1="129.55" y1="211.45" x2="224.64" y2="271.56" gradientUnits="userSpaceOnUse"><stop offset="0" stop-color="#9084ff"/><stop offset="0.12" stop-color="#9785ff"/><stop offset="0.29" stop-color="#aa87fe"/><stop offset="0.49" stop-color="#ca8afc"/><stop offset="0.53" stop-color="#d08bfc"/><stop offset="1" stop-color="#ffc9f8"/></linearGradient><linearGradient id="Áåçûìÿííûé_ãðàäèåíò_226" x1="130.77" y1="224.13" x2="225.76" y2="224.13" xlink:href="#Áåçûìÿííûé_ãðàäèåíò_271"/><linearGradient id="Áåçûìÿííûé_ãðàäèåíò_250" x1="326.71" y1="61.81" x2="373.41" y2="91.33" gradientUnits="userSpaceOnUse"><stop offset="0" stop-color="#845fff"/><stop offset="0.49" stop-color="#a972fc"/><stop offset="1" stop-color="#d4b0f8"/></linearGradient><linearGradient id="Áåçûìÿííûé_ãðàäèåíò_226-2" x1="325.82" y1="73.64" x2="370.28" y2="73.64" xlink:href="#Áåçûìÿííûé_ãðàäèåíò_271"/><linearGradient id="Áåçûìÿííûé_ãðàäèåíò_16" x1="296.46" y1="246.57" x2="412.29" y2="246.57" gradientUnits="userSpaceOnUse"><stop offset="0" stop-color="#7c52b3"/><stop offset="1" stop-color="#fff"/></linearGradient><radialGradient id="Áåçûìÿííûé_ãðàäèåíò_50-2" cx="409.71" cy="413.79" r="71.27" gradientTransform="translate(74.82 -56.31) rotate(10.24)" xlink:href="#Áåçûìÿííûé_ãðàäèåíò_50"/><linearGradient id="Áåçûìÿííûé_ãðàäèåíò_35-2" x1="388.65" y1="468.94" x2="341.13" y2="441.51" gradientTransform="translate(-132.92 554.77) rotate(-64.06)" xlink:href="#Áåçûìÿííûé_ãðàäèåíò_35"/><linearGradient id="Áåçûìÿííûé_ãðàäèåíò_107-3" x1="369.41" y1="487.21" x2="369.41" y2="425.19" gradientTransform="translate(-132.92 554.77) rotate(-64.06)" xlink:href="#Áåçûìÿííûé_ãðàäèåíò_107"/><linearGradient id="Áåçûìÿííûé_ãðàäèåíò_159" x1="355.22" y1="485.74" x2="355.22" y2="434.38" gradientTransform="translate(-109.83 612.99) rotate(-71.46)" gradientUnits="userSpaceOnUse"><stop offset="0.01" stop-color="#392cc2"/><stop offset="1" stop-color="#5f33c5"/></linearGradient><linearGradient id="Áåçûìÿííûé_ãðàäèåíò_165" x1="352.19" y1="485.49" x2="352.19" y2="434.68" gradientTransform="translate(-109.83 612.99) rotate(-71.46)" gradientUnits="userSpaceOnUse"><stop offset="0" stop-color="#5e48f7"/><stop offset="1" stop-color="#8c50ff"/></linearGradient><linearGradient id="Áåçûìÿííûé_ãðàäèåíò_16-2" x1="330.42" y1="452.31" x2="379.94" y2="452.31" gradientTransform="translate(-109.83 612.99) rotate(-71.46)" xlink:href="#Áåçûìÿííûé_ãðàäèåíò_16"/><linearGradient id="Áåçûìÿííûé_ãðàäèåíò_16-3" x1="213.78" y1="33.29" x2="282.16" y2="33.29" xlink:href="#Áåçûìÿííûé_ãðàäèåíò_16"/></defs><title>objects</title><g class="cls-1"><g id="Layer_1" data-name="Layer 1"><path class="cls-2" d="M363.63,58.53s26.1,7.23,43.47,6.17c0,0,31.11,21.14,48.49,77.17,0,0-14.95,17.71-11.77,38.3C443.83,180.17,417.21,107.86,363.63,58.53Z"/><path class="cls-3" d="M392.25,476.62s-10.64-3.21-18.55-2.25c0,0-10.62-8-10.79-21.77,0,0,8.15-10.06,11.11-17.82C374,434.78,377.29,457.08,392.25,476.62Z"/><path class="cls-4" d="M448,220.83A198,198,0,0,1,249.77,419c-3.51,0-7.07-.08-10.54-.29h0c-5.19-.25-10.34-.75-15.4-1.38a197,197,0,0,1-101.26-44.6,202,202,0,0,1-46.07-55.65c-1.21-2.18-2.38-4.39-3.56-6.61,0-.08,0-.13-.08-.21-1.21-2.38-2.34-4.77-3.43-7.2h0a190.07,190.07,0,0,1-8.87-23.43,178,178,0,0,1-4.64-17.74.25.25,0,0,1,0-.17c-.88-4.23-1.63-8.49-2.22-12.8a195.1,195.1,0,0,1-2-28.12c0-5.48.21-11,.71-16.32.25-3.43.63-6.82,1.09-10.21a194.32,194.32,0,0,1,15.86-55.36A198.41,198.41,0,0,1,249.77,22.58c2.09,0,4.18,0,6.23.08,2.22.08,4.44.17,6.65.33a197.43,197.43,0,0,1,33.26,5c6.28,1.51,12.43,3.26,18.45,5.36,4.1,1.38,8.12,2.93,12.09,4.6,3,1.26,5.86,2.55,8.75,3.93.5.25,1,.46,1.51.71a198.63,198.63,0,0,1,51.84,36.65c2.18,2.09,4.27,4.27,6.36,6.49,1.38,1.51,2.76,3.05,4.1,4.6,2.3,2.59,4.52,5.31,6.69,8A197.65,197.65,0,0,1,442.21,173,197.68,197.68,0,0,1,448,220.83Z"/><path class="cls-5" d="M59.13,191.55s35.36,18.45,67-6.63,6.34-118.63,6.34-118.63Z"/><path class="cls-6" d="M289,334.06s16,19.23,55.14,21.34,78.26-42.81,87.24-83.51-20.08-81.84-48.63-88.22S289,334.06,289,334.06Z"/><path class="cls-7" d="M132.24,375.64a198.92,198.92,0,0,1-49.69-62.48,196.22,196.22,0,0,1-17-48.38.26.26,0,0,1,0-.17,200.47,200.47,0,0,1-4.23-40.92A198.24,198.24,0,0,1,259.49,25.46c4.33,0,8.6.14,12.86.41a197.49,197.49,0,0,1,39.07,6.49A197,197,0,0,0,262.65,23c-4.26-.27-8.53-.41-12.86-.41A198.16,198.16,0,0,0,51.56,220.82a200.46,200.46,0,0,0,4.23,40.92.26.26,0,0,0,0,.17,196.22,196.22,0,0,0,17,48.38A199,199,0,0,0,198,412.19,197.75,197.75,0,0,1,132.24,375.64Z"/><path class="cls-8" d="M87.87,335.18s12.56,20.47,9.39,53.76c0,0,27.53,48.12,105.23,52.08,0,0,39.11-28.83,76.54-24.14C279,416.89,214.4,324.74,87.87,335.18Z"/><path class="cls-9" d="M59.13,191.55s-13-35.94-24.71-48.63c0,0-9-57.08,49.15-76.64,0,0,31.31,6,48.93,0,0,0,6.71,38.58-19.86,79.81C90,181.25,59.13,191.55,59.13,191.55Z"/><path class="cls-10" d="M415.29,219.54s-13.85-48.73-60.91-51.65c-49.91-3.1-94.1,96.49-78.7,144.06s70.94,40.72,96.38,23.43C403,314.38,418.12,268,415.29,219.54Z"/><path class="cls-11" d="M203.62,76.44S220.5,105,253.23,101.9c35.73-3.41,45.28-33.67,43.95-45.65S203.62,76.44,203.62,76.44Z"/><path class="cls-12" d="M362.08,184.92c-43.15-.24-107.06,114.57-51.42,153.17,52.87,36.67,101.72-42.92,107.46-70.11S420.17,185.24,362.08,184.92Z"/><path class="cls-13" d="M342,336.93c-2.05-.17-4.06-.46-5.94-.75-26.78-4.6-36.82-23.22-39.08-42a83.39,83.39,0,0,1,2.85-32.43c5.06-16.9,32.22-56.53,63.31-62.09,11-2,22.59.33,33.85,9.58,9.5,7.87,14.23,18.2,15.31,29.67C416.48,281.65,371.16,339.52,342,336.93Z"/><path class="cls-14" d="M211.22,23.94s-19.82,25.44-10,48.32c10.37,24.26,68.49,23.24,87.26,4.7s3.79-53.9-12.36-60.1C257.68,9.79,233.39,11.13,211.22,23.94Z"/><path class="cls-15" d="M207.52,57.24c10.12,20.4,79.39,23.31,84.4-12.07,4.75-33.62-44.35-37.78-58.53-34S193.89,29.78,207.52,57.24Z"/><path class="cls-16" d="M282.06,36.45a14.19,14.19,0,0,1,0,3.26A17,17,0,0,1,281.6,43C276,65.74,230.3,73.15,219.88,60.51a26.67,26.67,0,0,1-5.48-10.29c-3.56-13.93,8.87-25.11,17.11-29.42C241.68,15.45,279.8,10,282.06,36.45Z"/><path class="cls-17" d="M34.41,142.93c1,13,66.15-48.49,49.15-76.64C83.57,66.29,29.13,71.31,34.41,142.93Z"/><path class="cls-18" d="M97.26,388.94c-4-23.16,113.69-7.16,105.23,52.08C200.64,454,104,427.41,97.26,388.94Z"/><path class="cls-19" d="M191.91,439.31c-2,1.59-66.57-8-88.79-47.2-1.46-2.64,5.44-3.47,16-2.22a117.67,117.67,0,0,1,13.35,2.39c15.31,3.56,33.35,10.5,45.57,21.55a76.75,76.75,0,0,1,8.91,9.29,31.19,31.19,0,0,1,5.57,9.79C193.58,436.47,192.83,438.6,191.91,439.31Z"/><path class="cls-20" d="M187,423.12c-25.61-4.52-44-19.67-54.48-30.84,15.31,3.56,33.35,10.5,45.57,21.55A76.75,76.75,0,0,1,187,423.12Z"/><path class="cls-21" d="M97.26,307.3a19.6,19.6,0,0,1-5.86-6.4s0,0-.08-.13c-6.57-10.59-10.38-29-3.43-32.76,8.58-4.69,21.26-2.26,27,13a.13.13,0,0,0,0,.08,10.25,10.25,0,0,1,.54,1.59.59.59,0,0,1,.08.25,4.39,4.39,0,0,0,.33,1c.17.54.34,1.09.46,1.67C119.9,300.15,106.84,313.12,97.26,307.3Z"/><path class="cls-22" d="M114.88,281c-3.22-6.49-15.78-14-23.47-7-8.08,7.36-.75,25.11-.08,26.78-6.57-10.59-10.38-29-3.43-32.76C96.47,263.32,109.14,265.75,114.88,281Z"/><path class="cls-23" d="M157.31,114.38a9,9,0,0,1-2.44-3.17s0,0,0-.06c-2.61-5.12-3.64-13.72-.31-15.18,4.12-1.82,9.85-.21,11.89,7a.06.06,0,0,0,0,0,4.68,4.68,0,0,1,.19.75.28.28,0,0,1,0,.12,2,2,0,0,0,.11.49c.06.26.11.51.15.79C168,112,161.49,117.43,157.31,114.38Z"/><path class="cls-24" d="M166.43,103c-1.23-3.1-6.7-7.05-10.51-4.12-4,3.07-1.32,11.5-1.08,12.3-2.61-5.12-3.64-13.72-.31-15.18C158.65,94.15,164.38,95.76,166.43,103Z"/><path class="cls-25" d="M305.77,391.12h-.07a4.45,4.45,0,0,1-1.31.46c-.07.07-.13.13-.2.13a2.63,2.63,0,0,0-.85.26q-.59.2-1.38.39a16.27,16.27,0,0,1-16.35-4.6c-2.82-3.15-3.81-7.16-1.77-10.7a15.7,15.7,0,0,1,5.19-4.92l.07-.07c8.6-5.58,23.7-9.06,26.92-3.41a12.21,12.21,0,0,1,1.71,5C318.7,380,315.49,387.24,305.77,391.12Z"/><path class="cls-26" d="M142.35,281.94s11.92,19,44.62,17,38.64-18,40.62-31-3.48-29-3.48-29S151.86,252.62,142.35,281.94Z"/><path class="cls-27" d="M317.72,373.65c-2.69-2.3-8.27-5.12-17.4-2.23-14,4.4-14.71,16.35-14.71,16.35-2.82-3.15-3.81-7.16-1.77-10.7a15.7,15.7,0,0,1,5.19-4.92l.07-.07c8.6-5.58,23.7-9.06,26.92-3.41A12.21,12.21,0,0,1,317.72,373.65Z"/><path class="cls-28" d="M225.72,257.38l0,.71c.09,50.63-75.78,44.44-87.66,17.49A73.41,73.41,0,0,1,134,263.37v0c-6.69-27.11-2.51-63.43,9.58-71.76,12.72-8.74,37.16-9,54.94,0C218.52,201.65,226.43,231.82,225.72,257.38Z"/><path class="cls-29" d="M225.72,257.38l0,.71s1.13-31.68-14.18-48.58-46-21.67-63.52-2.64c-17.07,18.58-14.18,54.73-14,56.45-6.69-27.11-2.51-63.43,9.58-71.76,12.72-8.74,37.16-9,54.94,0C218.52,201.65,226.43,231.82,225.72,257.38Z"/><path class="cls-30" d="M367.94,98c-4.31,2.3-14.52-4.06-23.85-12-11.34-9.75-21.3-21.93-17.41-23.68,5.31-2.39,24.85-.8,33.85,6.61A37.54,37.54,0,0,1,370.28,82C373.09,88.46,373.34,95.07,367.94,98Z"/><path class="cls-31" d="M370.28,82s-.08-.13-.13-.17C356,60.48,334.23,61.4,332.64,67.21S344.09,86,344.09,86c-11.34-9.75-21.3-21.93-17.41-23.68,5.31-2.39,24.85-.8,33.85,6.61A37.54,37.54,0,0,1,370.28,82Z"/><path class="cls-32" d="M48.46,137.58s32.26-16.19,35.65-48.16C84.12,89.42,67.84,122.32,48.46,137.58Z"/><path class="cls-32" d="M289,296.09s3.18-64.1,49.54-101.88C338.5,194.21,282.89,220.81,289,296.09Z"/><path class="cls-33" d="M209.41,60.06s8.69,13.2,38.41,12.19S287.29,57.68,289,54c0,0-7.38,22.75-41,22C212.54,75.16,209.41,60.06,209.41,60.06Z"/><path class="cls-33" d="M148,383.06s45.06,18.19,54.19,44.36C202.17,427.42,201.17,397.38,148,383.06Z"/><path class="cls-34" d="M412.29,238.89V239S397,212.53,354.51,224.13c-38.08,10.38-54.53,59.37-57.54,70a83.39,83.39,0,0,1,2.85-32.43c5.06-16.9,32.22-56.53,63.31-62.09,11-2,22.59.33,33.85,9.58C406.48,217.09,411.21,227.42,412.29,238.89Z"/><path class="cls-35" d="M463.87,451.13a47.22,47.22,0,0,1-54.92,38.11c-.82-.15-1.66-.32-2.46-.52h0c-1.21-.28-2.39-.61-3.55-1A47,47,0,0,1,381.05,473a48.15,48.15,0,0,1-8.45-15c-.19-.56-.37-1.13-.55-1.7,0,0,0,0,0-.05-.18-.61-.35-1.22-.5-1.83h0a45.39,45.39,0,0,1-1.09-5.87,42.46,42.46,0,0,1-.34-4.36.06.06,0,0,1,0,0c0-1,0-2.06,0-3.1a46.5,46.5,0,0,1,.72-6.68c.23-1.29.51-2.56.86-3.8.2-.79.44-1.57.69-2.35a46.33,46.33,0,0,1,6.07-12.32,47.31,47.31,0,0,1,47.3-19.65l1.46.28c.52.11,1,.23,1.55.36a47.07,47.07,0,0,1,7.59,2.59c1.41.62,2.78,1.29,4.1,2,.9.5,1.78,1,2.64,1.59.64.42,1.27.85,1.89,1.29l.32.23a47.35,47.35,0,0,1,10.61,10.8c.42.58.82,1.18,1.22,1.79.26.41.52.83.77,1.25.43.71.84,1.44,1.23,2.17a47.14,47.14,0,0,1,5.4,19.06A47.13,47.13,0,0,1,463.87,451.13Z"/><path class="cls-36" d="M430.13,391.81s-18.76-.5-25.76,18.18c-7.43,19.81,21.67,50.19,40.22,49.92S467.82,436.3,465,423.83C461.63,408.7,447.38,396.74,430.13,391.81Z"/><path class="cls-37" d="M411.28,409c-5.57,17.44,26.33,57.7,46.87,40,19.52-16.8-2-46.56-10.77-52.29S418.79,385.53,411.28,409Z"/><path class="cls-38" d="M461.74,436.2c-.32.81-.68,1.59-1,2.31-5,10.26-12.79,12-19.63,10.55a27.54,27.54,0,0,1-10.95-5.22c-5.25-4.17-15.61-20.13-13.6-33.41a18.35,18.35,0,0,1,7.65-12.5,14.44,14.44,0,0,1,12.29-2.48C451.94,399.12,466.35,424.72,461.74,436.2Z"/><path class="cls-39" d="M460.72,438.51c-8.21,16.77-23.76,10.74-30.57,5.33-5.25-4.17-15.61-20.13-13.6-33.41a18.82,18.82,0,0,1,5.83-6.71C439.68,391.11,462.25,422.32,460.72,438.51Z"/><path class="cls-40" d="M436.49,395.45h0S425.35,398.34,424,417c-1.23,16.71,13.76,29.52,17.1,32.07a27.54,27.54,0,0,1-10.95-5.22c-5.25-4.17-15.61-20.13-13.6-33.41a18.35,18.35,0,0,1,7.65-12.5A14.44,14.44,0,0,1,436.49,395.45Z"/><path class="cls-41" d="M282.06,36.45a14.19,14.19,0,0,1,0,3.26c-8-11.67-22.6-14.27-41-10.29s-26.61,20.8-26.61,20.8c-3.56-13.93,8.87-25.11,17.11-29.42C241.68,15.45,279.8,10,282.06,36.45Z"/></g></g></svg>