<svg xmlns="http://www.w3.org/2000/svg" xmlns:xlink="http://www.w3.org/1999/xlink" viewBox="0 0 500 500"><defs><style>.cls-1{isolation:isolate;}.cls-2{fill:url(#linear-gradient);}.cls-19,.cls-23,.cls-25,.cls-26,.cls-3,.cls-4{opacity:0.5;}.cls-3{mix-blend-mode:multiply;fill:url(#linear-gradient-2);}.cls-4,.cls-5{fill:#fff;}.cls-23,.cls-25,.cls-26,.cls-4,.cls-5{mix-blend-mode:overlay;}.cls-5{opacity:0.85;}.cls-6{fill:url(#linear-gradient-3);}.cls-7{fill:url(#linear-gradient-4);}.cls-8{fill:url(#linear-gradient-5);}.cls-9{fill:url(#linear-gradient-6);}.cls-10{fill:url(#linear-gradient-7);}.cls-11{fill:url(#linear-gradient-8);}.cls-12{fill:url(#linear-gradient-9);}.cls-13{fill:url(#linear-gradient-10);}.cls-14{fill:url(#linear-gradient-11);}.cls-15{fill:url(#linear-gradient-12);}.cls-16{fill:url(#linear-gradient-13);}.cls-17{fill:url(#linear-gradient-14);}.cls-18{fill:url(#linear-gradient-15);}.cls-19,.cls-21{fill:#510071;}.cls-20,.cls-27{opacity:0.35;}.cls-22{fill:url(#linear-gradient-16);}.cls-23{fill:url(#linear-gradient-17);}.cls-24{fill:url(#linear-gradient-18);}.cls-25{fill:url(#linear-gradient-19);}.cls-26{fill:url(#linear-gradient-20);}.cls-27{mix-blend-mode:color-burn;fill:url(#linear-gradient-21);}.cls-28{opacity:0.25;mix-blend-mode:screen;fill:url(#radial-gradient);}</style><linearGradient id="linear-gradient" x1="27.49" y1="137.84" x2="392.79" y2="325.9" gradientUnits="userSpaceOnUse"><stop offset="0" stop-color="#62f2fe"/><stop offset="0.17" stop-color="#63c1e8"/><stop offset="0.47" stop-color="#656fc4"/><stop offset="0.72" stop-color="#6733aa"/><stop offset="0.9" stop-color="#680e99"/><stop offset="0.99" stop-color="#680093"/></linearGradient><linearGradient id="linear-gradient-2" x1="71.06" y1="337.44" x2="227.2" y2="337.44" gradientUnits="userSpaceOnUse"><stop offset="0" stop-color="#fff7f5"/><stop offset="0.16" stop-color="#f9eff3"/><stop offset="0.41" stop-color="#e7d8ed"/><stop offset="0.73" stop-color="#cbb4e4"/><stop offset="1" stop-color="#ae8edb"/></linearGradient><linearGradient id="linear-gradient-3" x1="-89.33" y1="-364.64" x2="-8.86" y2="-364.64" gradientTransform="translate(250.98 471.53) rotate(25.65)" gradientUnits="userSpaceOnUse"><stop offset="0" stop-color="#440064"/><stop offset="0.18" stop-color="#44016a"/><stop offset="0.43" stop-color="#45057c"/><stop offset="0.71" stop-color="#460a99"/><stop offset="1" stop-color="#4711bd"/></linearGradient><linearGradient id="linear-gradient-4" x1="153.61" y1="-134.85" x2="235.98" y2="-134.85" gradientTransform="translate(144.86 208.74) rotate(12.12)" gradientUnits="userSpaceOnUse"><stop offset="0" stop-color="#cf00ff"/><stop offset="0.1" stop-color="#b700e6"/><stop offset="0.25" stop-color="#9a00c8"/><stop offset="0.41" stop-color="#8400b0"/><stop offset="0.57" stop-color="#7400a0"/><stop offset="0.76" stop-color="#6b0096"/><stop offset="0.99" stop-color="#680093"/></linearGradient><linearGradient id="linear-gradient-5" x1="-1838.26" y1="1810.83" x2="-1779.75" y2="1868.04" gradientTransform="matrix(-0.62, -0.79, 0.79, -0.62, -2426.7, -163.55)" gradientUnits="userSpaceOnUse"><stop offset="0" stop-color="#16c0ff"/><stop offset="1" stop-color="#440064"/></linearGradient><linearGradient id="linear-gradient-6" x1="94.18" y1="143.78" x2="179.37" y2="143.78" gradientUnits="userSpaceOnUse"><stop offset="0.01" stop-color="#1c67ff"/><stop offset="0.08" stop-color="#2579ff"/><stop offset="0.29" stop-color="#3ba4ff"/><stop offset="0.49" stop-color="#4cc6fe"/><stop offset="0.68" stop-color="#58defe"/><stop offset="0.85" stop-color="#5fedfe"/><stop offset="1" stop-color="#62f2fe"/></linearGradient><linearGradient id="linear-gradient-7" x1="-1569.24" y1="2132.19" x2="-1538.05" y2="2162.69" gradientTransform="translate(-2382.72 186.68) rotate(-128.15)" xlink:href="#linear-gradient-5"/><linearGradient id="linear-gradient-8" x1="-23.47" y1="-242.71" x2="21.95" y2="-242.71" gradientTransform="matrix(0.95, 0.3, -0.3, 0.95, 191.59, 324.57)" xlink:href="#linear-gradient-6"/><linearGradient id="linear-gradient-9" x1="-2072.9" y1="161.44" x2="-2178.4" y2="236.59" gradientTransform="matrix(-0.58, 0.81, -0.81, -0.58, -931.85, 2111.13)" xlink:href="#linear-gradient-5"/><linearGradient id="linear-gradient-10" x1="102.33" y1="307.57" x2="177.59" y2="307.57" gradientUnits="userSpaceOnUse"><stop offset="0.01" stop-color="#1c67ff"/><stop offset="0.03" stop-color="#1f6dff"/><stop offset="0.26" stop-color="#379cff"/><stop offset="0.48" stop-color="#4ac1fe"/><stop offset="0.68" stop-color="#57dcfe"/><stop offset="0.86" stop-color="#5fecfe"/><stop offset="1" stop-color="#62f2fe"/></linearGradient><linearGradient id="linear-gradient-11" x1="-2118.04" y1="190.59" x2="-2172.03" y2="229.06" gradientTransform="translate(-1117.66 2102.75) rotate(134.23)" xlink:href="#linear-gradient-3"/><linearGradient id="linear-gradient-12" x1="246.19" y1="427.76" x2="198.51" y2="461.72" gradientTransform="matrix(1, 0, 0, 1, 0, 0)" xlink:href="#linear-gradient-4"/><linearGradient id="linear-gradient-13" x1="337.52" y1="321.7" x2="404.66" y2="321.7" gradientTransform="translate(-10.73 -5.65) rotate(-0.29)" xlink:href="#linear-gradient-3"/><linearGradient id="linear-gradient-14" x1="408.08" y1="630.47" x2="481.1" y2="630.47" gradientTransform="translate(-221.87 -194.87) rotate(-13.8)" xlink:href="#linear-gradient-4"/><linearGradient id="linear-gradient-15" x1="-1.22" y1="-55.09" x2="42.69" y2="-55.09" gradientTransform="matrix(0.91, 0.42, -0.42, 0.91, 282.08, 466.58)" xlink:href="#linear-gradient-3"/><linearGradient id="linear-gradient-16" x1="249.72" y1="184.36" x2="283.51" y2="302.66" gradientUnits="userSpaceOnUse"><stop offset="0" stop-color="#4485d5"/><stop offset="0.17" stop-color="#4466bd"/><stop offset="0.43" stop-color="#443b9b"/><stop offset="0.66" stop-color="#441c83"/><stop offset="0.86" stop-color="#440974"/><stop offset="0.99" stop-color="#44026f"/></linearGradient><linearGradient id="linear-gradient-17" x1="215.36" y1="221.49" x2="292.48" y2="178.5" gradientUnits="userSpaceOnUse"><stop offset="0" stop-color="#440064"/><stop offset="0.01" stop-color="#61287c"/><stop offset="0.02" stop-color="#825597"/><stop offset="0.03" stop-color="#a07db0"/><stop offset="0.04" stop-color="#baa0c6"/><stop offset="0.06" stop-color="#cfbed7"/><stop offset="0.07" stop-color="#e1d6e6"/><stop offset="0.09" stop-color="#eee8f1"/><stop offset="0.11" stop-color="#f8f5f9"/><stop offset="0.14" stop-color="#fdfdfe"/><stop offset="0.19" stop-color="#fff"/><stop offset="0.28" stop-color="#ddd0e3"/><stop offset="0.38" stop-color="#b59ac1"/><stop offset="0.49" stop-color="#926ba5"/><stop offset="0.6" stop-color="#76448d"/><stop offset="0.7" stop-color="#60267b"/><stop offset="0.81" stop-color="#51116e"/><stop offset="0.91" stop-color="#470467"/><stop offset="1" stop-color="#440064"/></linearGradient><linearGradient id="linear-gradient-18" x1="235.58" y1="239.73" x2="240.01" y2="255.25" gradientUnits="userSpaceOnUse"><stop offset="0" stop-color="#680093"/><stop offset="0.4" stop-color="#cf00ff"/><stop offset="0.42" stop-color="#ca00fa"/><stop offset="0.6" stop-color="#a000ce"/><stop offset="0.76" stop-color="#8100ae"/><stop offset="0.9" stop-color="#6f009a"/><stop offset="0.99" stop-color="#680093"/></linearGradient><linearGradient id="linear-gradient-19" x1="250" y1="495.97" x2="250" y2="6.96" gradientUnits="userSpaceOnUse"><stop offset="0" stop-color="#440064"/><stop offset="0.07" stop-color="#61287c"/><stop offset="0.16" stop-color="#865a9b"/><stop offset="0.26" stop-color="#a686b5"/><stop offset="0.37" stop-color="#c2abcc"/><stop offset="0.47" stop-color="#d8cadf"/><stop offset="0.58" stop-color="#e9e1ed"/><stop offset="0.7" stop-color="#f5f2f7"/><stop offset="0.83" stop-color="#fdfcfd"/><stop offset="1" stop-color="#fff"/></linearGradient><linearGradient id="linear-gradient-20" x1="256.16" y1="138.43" x2="315.5" y2="346.21" xlink:href="#linear-gradient-19"/><linearGradient id="linear-gradient-21" x1="275.8" y1="520.13" x2="397.6" y2="192.87" gradientUnits="userSpaceOnUse"><stop offset="0" stop-color="#1c0067"/><stop offset="0.68" stop-color="#b9b1d0"/><stop offset="1" stop-color="#fff"/></linearGradient><radialGradient id="radial-gradient" cx="198.99" cy="258.19" r="68.6" gradientUnits="userSpaceOnUse"><stop offset="0" stop-color="#fff"/><stop offset="0.23" stop-color="#fdfdfd"/><stop offset="0.37" stop-color="#f4f4f4"/><stop offset="0.48" stop-color="#e6e6e6"/><stop offset="0.58" stop-color="#d2d2d2"/><stop offset="0.67" stop-color="#b8b8b8"/><stop offset="0.75" stop-color="#989898"/><stop offset="0.83" stop-color="#727272"/><stop offset="0.9" stop-color="#464646"/><stop offset="0.97" stop-color="#161616"/><stop offset="1"/></radialGradient></defs><title>objects</title><g class="cls-1"><g id="Layer_1" data-name="Layer 1"><path class="cls-2" d="M455.44,146.78c0,1.45,0,3,0,4.55a214.34,214.34,0,0,1-4.51,38.34c-8.43,42.18-46.37,226.34-67.46,244.61-17,14.78-50.49,54.25-115.33,60.76-5.29.55-10.86.86-16.58.9s-11.56-.08-17.68-.55a63.25,63.25,0,0,1-25.48-7.49,47.12,47.12,0,0,1-5.57-3.29c-24-16.07-72.48-50.73-80.87-72.83-11.25-29.52-78.75-172.91-77.34-212.27s14.07-94.2,54.84-109.68S209.06,35,240,12.48A33.49,33.49,0,0,1,252.26,7C284.17-.45,309.85,37.22,337,53.29c16.7,9.84,59,22,76.44,35.67,11.6,9.09,21.6,16.93,27.64,20.93a28.22,28.22,0,0,0,4.19,2.43C451.32,114.91,455.28,127.57,455.44,146.78Z"/><path class="cls-3" d="M71.54,223a18.1,18.1,0,0,1,24-21.06c35.5,13.49,98.52,61.64,99.47,74.9,1.41,19.68,4.22,136.38,14.06,157.47s28.12,43.59,11.25,39.37S179.56,434.29,151.44,416C126.25,399.64,92.27,313.62,71.54,223Z"/><path class="cls-4" d="M211.22,486c-23.93-16.08-72.46-50.76-80.87-72.83C119.1,383.67,51.61,240.26,53,200.9s14.06-94.2,54.83-109.67C146.47,76.58,210.29,40.5,243.21,17.62c3.23-4,6.3-7.55,9-10.66A33.19,33.19,0,0,0,240,12.5C209.08,35,140.19,74.36,99.42,89.83S46,160.12,44.58,199.49s66.08,182.78,77.33,212.3c8.41,22.07,56.94,56.75,80.87,72.83a64.48,64.48,0,0,0,29.62,10.61A64.47,64.47,0,0,1,211.22,486Z"/><path class="cls-5" d="M445.29,112.32c-.23-.1-.5-.24-.77-.37,4.9,12.5,5.67,37.73-.64,69.27-8.44,42.18-46.4,226.36-67.49,244.64C356.59,443,314.49,493.62,226.83,487a64.52,64.52,0,0,1-31.08-10.78c-18-12.06-49.76-34.6-68.07-54.42,15.82,21.49,54.53,49,75.1,62.86a64.52,64.52,0,0,0,31.08,10.78c87.67,6.66,129.77-44,149.57-61.11,21.09-18.28,59.05-202.46,67.49-244.64S455.13,116.54,445.29,112.32Z"/><path class="cls-6" d="M405.75,104.92c9.14,15.25-1.9,35.06-24.66,44.25s-48.62,4.28-57.76-11S325.23,103.15,348,94,396.61,89.67,405.75,104.92Z"/><path class="cls-7" d="M351.92,100.94c21.25-8.58,45.2-4.86,55.72,8.08a22.69,22.69,0,0,0-1.89-4.1c-9.14-15.25-35-20.15-57.76-11s-33.8,29-24.66,44.25a24.73,24.73,0,0,0,2,2.88C320.19,126.55,331.15,109.33,351.92,100.94Z"/><ellipse class="cls-8" cx="135.6" cy="137.51" rx="45.93" ry="37.49" transform="translate(-52.04 91.83) rotate(-31.72)"/><path class="cls-9" d="M150.59,161.3c-20.15,12.45-44.42,10.25-56.41-4.44a30.86,30.86,0,0,0,2.36,4.8c10.88,17.61,37.2,21.08,58.78,7.74s30.25-38.42,19.36-56a30.94,30.94,0,0,0-2.37-3.3C179.16,127.19,170.28,149.13,150.59,161.3Z"/><ellipse class="cls-10" cx="264.95" cy="89.7" rx="24.48" ry="19.98" transform="translate(-13.85 67) rotate(-14.05)"/><path class="cls-11" d="M268.71,104.21c-12.25,3.07-24.22-2-27.94-11.38a16.44,16.44,0,0,0,.42,2.82c2.68,10.71,15.48,16.73,28.6,13.44s21.58-14.62,18.9-25.33A16.43,16.43,0,0,0,288,81.7C288.75,91.51,280.68,101.22,268.71,104.21Z"/><path class="cls-12" d="M152.3,345.93c-19.86,7.67-41.76-12-48.92-44s3.15-64.08,23-71.75,41.76,12,48.92,44S172.17,338.27,152.3,345.93Z"/><path class="cls-13" d="M175.32,274.19c-.51-2.28-1.1-4.49-1.76-6.63,4.86,30-5.36,59-24.07,66.19-18.45,7.12-38.64-9.36-47.16-37.35.3,1.85.64,3.7,1.06,5.55,7.15,32,29.05,51.65,48.92,44S182.47,306.14,175.32,274.19Z"/><path class="cls-14" d="M231.15,462.16c-14.62,1.72-28.55-10.63-31.1-27.57s7.22-32.07,21.84-33.79,28.54,10.63,31.1,27.57S245.77,460.44,231.15,462.16Z"/><path class="cls-15" d="M253,428.37a36.14,36.14,0,0,0-2.7-9.26c2,16.51-7.64,31.05-22,32.73-11.79,1.38-23.11-6.38-28.4-18.32,0,.35.06.7.11,1.05,2.56,16.94,16.48,29.29,31.1,27.57S255.55,445.31,253,428.37Z"/><path class="cls-16" d="M387.28,276.27c12.11,11.3,10.59,37.43-3.4,58.38s-35.13,28.76-47.24,17.47-10.59-37.43,3.4-58.38S375.18,265,387.28,276.27Z"/><path class="cls-17" d="M345.39,299c13.06-19.56,32.36-27.66,44.72-19.45a21.48,21.48,0,0,0-2.83-3.33C375.18,265,354,272.79,340,293.74s-15.5,47.08-3.4,58.38a19.46,19.46,0,0,0,2.52,2C330.29,341.56,332.63,318.16,345.39,299Z"/><path class="cls-18" d="M349.52,409.82c4,10-4.11,25.11-18.2,33.64s-28.79,7.3-32.83-2.75,4.11-25.11,18.2-33.64S345.48,399.77,349.52,409.82Z"/><path class="cls-19" d="M352.43,205.69c5.11,3,6.6,12.29,3.32,20.7s-10.08,12.79-15.19,9.77-6.6-12.29-3.32-20.7S347.32,202.67,352.43,205.69Z"/><path class="cls-19" d="M404.67,237.93c2.47,1.46,3.19,5.94,1.61,10s-4.87,6.18-7.34,4.72-3.19-5.94-1.61-10S402.2,236.47,404.67,237.93Z"/><path class="cls-19" d="M279.66,153.49c.55-2.82,4.53-5,8.9-4.86s7.45,2.53,6.9,5.34-4.53,5-8.9,4.86S279.11,156.31,279.66,153.49Z"/><path class="cls-19" d="M159,375.73c3.53-.83,8.11,2.62,10.22,7.72s1,9.9-2.56,10.73-8.11-2.62-10.22-7.72S155.42,376.56,159,375.73Z"/><g class="cls-20"><path class="cls-19" d="M269.87,38.07c-.59,3.78-5.78,6.89-11.6,6.93s-10.06-3-9.48-6.76,5.78-6.89,11.6-6.93S270.46,34.28,269.87,38.07Z"/></g><g class="cls-20"><path class="cls-19" d="M78.27,192.25C83.68,192,89.4,198.42,91,206.49s-1.42,14.79-6.83,15-11.13-6.17-12.77-14.24S72.85,192.46,78.27,192.25Z"/></g><g class="cls-20"><path class="cls-21" d="M254,341.41c2.66,1.57,3.44,6.4,1.73,10.78s-5.25,6.66-7.91,5.09-3.44-6.4-1.73-10.78S251.32,339.84,254,341.41Z"/></g><path class="cls-22" d="M222.76,210.16c-6.45-6.56-9.23-16.08-5.82-24.62,3.67-9.18,11.75-17.69,29.39-14.87,35.15,5.62,53.43,38,50.62,57.65s-23.9,66.08-45,46.4C233.8,257.76,237.54,225.17,222.76,210.16Z"/><path class="cls-23" d="M219.76,195.38c3.67-9.18,11.75-17.69,29.39-14.87a61.67,61.67,0,0,1,47.48,37.43c-3.26-19.07-20.81-42.56-50.29-47.27-17.64-2.82-25.72,5.69-29.39,14.87a21.89,21.89,0,0,0,1.43,18.64A20.58,20.58,0,0,1,219.76,195.38Z"/><path class="cls-24" d="M235,237.5c1.24,4.74,2.47,9.58,4,14.29C237.69,246.9,236.46,242.06,235,237.5Z"/><path class="cls-25" d="M455.41,151.32a55.69,55.69,0,0,0-37.15,5.46c-35.57,18.84-200.41,68-205.92,109.3-4.78,35.88,2.05,168.13,55.76,229q-8,.8-16.59.9t-17.66-.56a64.51,64.51,0,0,1-31.07-10.77c-23.93-16.08-72.46-50.76-80.87-72.83-11.25-29.53-78.73-172.93-77.33-212.3s14.06-94.2,54.83-109.67S209.08,35,240,12.5A33.19,33.19,0,0,1,252.25,7c-22.19,25.25-66,81.63-45.92,112.93,26.35,41.17,88.35,86,165.06,38.89C406.79,137,428.27,121,441.1,109.9a28.52,28.52,0,0,0,4.19,2.42C451.81,115.11,455.86,129.61,455.41,151.32Z"/><path class="cls-26" d="M62.86,161.53s102.4,59.75,123,65.38S438,128,447.39,124.27s.23,1.17.23,1.17-235.27,114.35-239,123.73-1.87,77.8-1.87,77.8-1.64-66.31-11-74.75S62.86,161.53,62.86,161.53Z"/><path class="cls-27" d="M455.44,146.78c0,1.45,0,3,0,4.55a214.34,214.34,0,0,1-4.51,38.34c-8.43,42.18-46.37,226.34-67.46,244.61-17,14.78-50.49,54.25-115.33,60.76-5.29.55-10.86.86-16.58.9s-11.56-.08-17.68-.55a63.25,63.25,0,0,1-25.48-7.49,164.68,164.68,0,0,1,17.4-2.35c135.91-11.76,115-228.66,159.43-290.08C406.75,165.64,433.56,152.47,455.44,146.78Z"/><circle class="cls-28" cx="198.99" cy="258.19" r="68.6"/></g></g></svg>