<svg xmlns="http://www.w3.org/2000/svg" xmlns:xlink="http://www.w3.org/1999/xlink" viewBox="0 0 500 500"><defs><style>.cls-1{mask:url(#mask);filter:url(#luminosity-noclip-3);}.cls-15,.cls-18,.cls-2,.cls-20,.cls-25,.cls-27,.cls-28,.cls-4,.cls-8{mix-blend-mode:multiply;}.cls-2{fill:url(#linear-gradient);}.cls-3{mask:url(#mask-2);filter:url(#luminosity-noclip-4);}.cls-4{fill:url(#linear-gradient-2);}.cls-5{isolation:isolate;}.cls-6{fill:#333;}.cls-20,.cls-7{fill:#999;}.cls-8,.cls-9{fill:#b3b3b3;}.cls-10,.cls-28{fill:#666;}.cls-11{fill:#e6e7e8;}.cls-12,.cls-15{fill:gray;}.cls-13{fill:#4d4d4d;}.cls-14,.cls-25{fill:#ccc;}.cls-16{fill:#4c969c;}.cls-17,.cls-32{fill:#fff;}.cls-17{opacity:0.5;}.cls-18,.cls-22{fill:#e6e6e6;}.cls-19{fill:#f15a24;}.cls-21{fill:#65c8d0;}.cls-23{mask:url(#mask-3);}.cls-24{fill:url(#linear-gradient-3);}.cls-26{mask:url(#mask-4);}.cls-27{fill:url(#linear-gradient-4);}.cls-29{fill:url(#linear-gradient-5);}.cls-30{fill:url(#linear-gradient-6);}.cls-31{fill:#007f76;}.cls-32{opacity:0.3;}.cls-33{filter:url(#luminosity-noclip-2);}.cls-34{filter:url(#luminosity-noclip);}</style><filter id="luminosity-noclip" x="160.32" y="-8702" width="76.21" height="32766" filterUnits="userSpaceOnUse" color-interpolation-filters="sRGB"><feFlood flood-color="#fff" result="bg"/><feBlend in="SourceGraphic" in2="bg"/></filter><mask id="mask" x="160.32" y="-8702" width="76.21" height="32766" maskUnits="userSpaceOnUse"><g class="cls-34"/></mask><linearGradient id="linear-gradient" x1="198.43" y1="395.94" x2="198.43" y2="20.1" gradientUnits="userSpaceOnUse"><stop offset="0"/><stop offset="0.23" stop-color="#414141"/><stop offset="0.61" stop-color="#a6a6a6"/><stop offset="0.88" stop-color="#e6e6e6"/><stop offset="1" stop-color="#fff"/></linearGradient><filter id="luminosity-noclip-2" x="145.97" y="-8702" width="208.07" height="32766" filterUnits="userSpaceOnUse" color-interpolation-filters="sRGB"><feFlood flood-color="#fff" result="bg"/><feBlend in="SourceGraphic" in2="bg"/></filter><mask id="mask-2" x="145.97" y="-8702" width="208.07" height="32766" maskUnits="userSpaceOnUse"><g class="cls-33"/></mask><linearGradient id="linear-gradient-2" x1="250" y1="400.89" x2="250" y2="341.83" gradientUnits="userSpaceOnUse"><stop offset="0" stop-color="#fff"/><stop offset="0.09" stop-color="#f8f8f8"/><stop offset="0.22" stop-color="#e6e6e6"/><stop offset="0.36" stop-color="#c8c8c8"/><stop offset="0.53" stop-color="#9e9e9e"/><stop offset="0.71" stop-color="#686868"/><stop offset="0.9" stop-color="#282828"/><stop offset="1"/></linearGradient><filter id="luminosity-noclip-3" x="160.32" y="20.1" width="76.21" height="375.84" filterUnits="userSpaceOnUse" color-interpolation-filters="sRGB"><feFlood flood-color="#fff" result="bg"/><feBlend in="SourceGraphic" in2="bg"/></filter><mask id="mask-3" x="160.32" y="20.1" width="76.21" height="375.84" maskUnits="userSpaceOnUse"><g class="cls-1"><path class="cls-2" d="M160.32,341.83c2.68,19.09,26.28,43.75,58.59,54.12-15.68-12.63-26.51-32.88-28-49.2,2-121.2,20.78-281.65,45.58-326.64C195.45,51.15,163.47,217.79,160.32,341.83Z"/></g></mask><linearGradient id="linear-gradient-3" x1="198.43" y1="395.94" x2="198.43" y2="20.1" gradientUnits="userSpaceOnUse"><stop offset="0" stop-color="#fff"/><stop offset="1" stop-color="#fff"/></linearGradient><filter id="luminosity-noclip-4" x="145.97" y="341.83" width="208.07" height="59.07" filterUnits="userSpaceOnUse" color-interpolation-filters="sRGB"><feFlood flood-color="#fff" result="bg"/><feBlend in="SourceGraphic" in2="bg"/></filter><mask id="mask-4" x="145.97" y="341.83" width="208.07" height="59.07" maskUnits="userSpaceOnUse"><g class="cls-3"><path class="cls-4" d="M250,400.89c-55,0-100-34.25-104-59.07H354C350,366.64,305,400.89,250,400.89Z"/></g></mask><linearGradient id="linear-gradient-4" x1="250" y1="400.89" x2="250" y2="341.83" gradientUnits="userSpaceOnUse"><stop offset="0"/><stop offset="0.09" stop-color="#070707"/><stop offset="0.22" stop-color="#191919"/><stop offset="0.36" stop-color="#373737"/><stop offset="0.53" stop-color="#616161"/><stop offset="0.71" stop-color="#979797"/><stop offset="0.9" stop-color="#d7d7d7"/><stop offset="1" stop-color="#fff"/></linearGradient><linearGradient id="linear-gradient-5" x1="250" y1="243.96" x2="250" y2="139.5" gradientUnits="userSpaceOnUse"><stop offset="0" stop-color="#808285"/><stop offset="0.24" stop-color="#888a8d"/><stop offset="0.6" stop-color="#9d9fa2"/><stop offset="1" stop-color="#bcbec0"/></linearGradient><linearGradient id="linear-gradient-6" x1="250" y1="241.32" x2="250" y2="142.14" gradientUnits="userSpaceOnUse"><stop offset="0" stop-color="#bcbec0"/><stop offset="0.4" stop-color="#9d9fa2"/><stop offset="0.76" stop-color="#888a8d"/><stop offset="1" stop-color="#808285"/></linearGradient></defs><title>ships</title><g class="cls-5"><g id="Layer_1" data-name="Layer 1"><rect class="cls-6" x="215.59" y="358.86" width="68.83" height="66.54"/><rect class="cls-7" x="215.59" y="387.94" width="68.83" height="5.03"/><rect class="cls-7" x="215.59" y="405.63" width="68.83" height="5.03"/><rect class="cls-8" x="250" y="358.86" width="34.41" height="66.54"/><polygon class="cls-9" points="213.48 414.94 184.25 448.55 315.75 448.55 286.52 414.94 213.48 414.94"/><polygon class="cls-10" points="242.95 414.94 237.3 448.55 260.94 448.55 256.07 414.94 242.95 414.94"/><polygon class="cls-11" points="224.24 414.94 203.61 448.55 215.1 448.55 230.62 414.94 224.24 414.94"/><polygon class="cls-12" points="270.41 414.94 286.75 448.55 303.88 448.55 279.92 414.94 270.41 414.94"/><polygon class="cls-13" points="253.33 414.94 256 448.55 277.49 448.55 265.26 414.94 253.33 414.94"/><polygon class="cls-14" points="213.48 414.94 184.25 448.55 199.44 448.55 221.92 414.94 213.48 414.94"/><polygon class="cls-15" points="286.52 414.94 213.48 414.94 205.17 424.5 294.83 424.5 286.52 414.94"/><path class="cls-16" d="M212.16,388.77l-89.38,82.67V398.71l66.13-53.43C196.06,341.11,186.66,362.56,212.16,388.77Z"/><path class="cls-17" d="M192.51,349.22c-.64-3.77-1.14-5.36-3.6-3.93l-66.13,53.43v6.83Z"/><path class="cls-18" d="M201.57,375.32c-13.26,21.16-69.71,96.57-65.24,12.46l-13.54,10.94v72.73l89.38-82.67A77.75,77.75,0,0,1,201.57,375.32Z"/><ellipse cx="122.78" cy="471.2" rx="6.64" ry="13.8"/><path class="cls-19" d="M130.35,471.89H115.22V382a7.57,7.57,0,0,1,7.57-7.57h0a7.57,7.57,0,0,1,7.57,7.57Z"/><path class="cls-8" d="M130.35,382a7.54,7.54,0,0,0-1.87-5,3.26,3.26,0,0,0-5.7,2.15v92.72h7.57Z"/><path class="cls-17" d="M117.46,381.17a7.56,7.56,0,0,1,3.86-6.6,7.57,7.57,0,0,0-6.11,7.43v89.89h2.24Z"/><path class="cls-20" d="M200.61,399.46l11.56-10.69c-25.51-26.21-16.1-47.66-23.25-43.48L154.64,373C164.21,387.5,182.92,396.55,200.61,399.46Z"/><path class="cls-21" d="M287.84,388.77l89.38,82.67V398.71l-66.13-53.43C303.94,341.11,313.34,362.56,287.84,388.77Z"/><path class="cls-17" d="M307.49,349.22c.64-3.77,1.14-5.36,3.6-3.93l66.13,53.43v6.83Z"/><path class="cls-18" d="M298.43,375.32c13.26,21.16,69.71,96.57,65.24,12.46l13.54,10.94v72.73l-89.38-82.67A77.75,77.75,0,0,0,298.43,375.32Z"/><ellipse cx="377.22" cy="471.2" rx="6.64" ry="13.8"/><path class="cls-19" d="M384.78,471.89H369.65V382a7.57,7.57,0,0,1,7.57-7.57h0a7.57,7.57,0,0,1,7.57,7.57Z"/><path class="cls-8" d="M384.78,382a7.54,7.54,0,0,0-1.87-5,3.26,3.26,0,0,0-5.7,2.15v92.72h7.57Z"/><path class="cls-17" d="M371.89,381.17a7.56,7.56,0,0,1,3.86-6.6,7.57,7.57,0,0,0-6.11,7.43v89.89h2.24Z"/><path class="cls-20" d="M299.39,399.46l-11.56-10.69c25.51-26.21,16.1-47.66,23.25-43.48L345.36,373C335.79,387.5,317.08,396.55,299.39,399.46Z"/><path class="cls-22" d="M250,15c-55,0-100,189.52-104,326.83,4,24.82,49.07,59.07,104,59.07s100-34.25,104-59.07C350,204.52,305,15,250,15Z"/><path class="cls-19" d="M250.12,122a324.64,324.64,0,0,1,72,8C303.37,63.87,278,15,250.12,15s-53.25,48.87-72,114.95A324.67,324.67,0,0,1,250.12,122Z"/><g class="cls-23"><path class="cls-24" d="M160.32,341.83c2.68,19.09,26.28,43.75,58.59,54.12-15.68-12.63-26.51-32.88-28-49.2,2-121.2,20.78-281.65,45.58-326.64C195.45,51.15,163.47,217.79,160.32,341.83Z"/></g><path class="cls-25" d="M263.47,20.1c24.81,45,43.63,205.44,45.58,326.64-1.46,16.32-12.28,36.57-28,49.2,32.31-10.37,55.91-35,58.59-54.12C336.53,217.79,304.55,51.15,263.47,20.1Z"/><path class="cls-17" d="M277.86,31.22c38.62,51.16,67.41,199.1,70.52,312.08-2.08,13.66-15.66,30.15-36,42.34,23.47-12.2,39.32-29.56,41.64-43.81C350.7,228.62,319.51,79.94,277.86,31.22ZM146,341.83c2.32,14.25,18.16,31.61,41.64,43.81-20.32-12.19-33.9-28.68-36-42.34,3.11-113,31.89-260.92,70.52-312.08C180.49,79.94,149.3,228.62,146,341.83Z"/><path class="cls-8" d="M250,400.89c-55,0-100-34.25-104-59.07H354C350,366.64,305,400.89,250,400.89Z"/><g class="cls-26"><path class="cls-27" d="M250,400.89c-55,0-100-34.25-104-59.07H354C350,366.64,305,400.89,250,400.89Z"/></g><path class="cls-28" d="M207.21,200.06a73.88,73.88,0,0,0,6.11,29.61c6,13.73,21.94,22.62,39.38,22.62h14c17.45,0,33.39-8.9,39.38-22.62a74.82,74.82,0,0,0,0-59.22c-6-13.73-21.94-22.62-39.38-22.62h-14c-17.45,0-33.39,8.9-39.38,22.62A73.89,73.89,0,0,0,207.21,200.06Z"/><path class="cls-25" d="M187.76,200.06a73.89,73.89,0,0,0,6.11,29.61c6,13.73,21.94,22.62,39.38,22.62h14c17.45,0,33.39-8.9,39.38-22.62a74.82,74.82,0,0,0,0-59.22c-6-13.73-21.94-22.62-39.38-22.62h-14c-17.45,0-33.39,8.9-39.38,22.62A73.89,73.89,0,0,0,187.76,200.06Z"/><path class="cls-29" d="M197.48,191.73a73.89,73.89,0,0,0,6.11,29.61c6,13.73,21.94,22.62,39.38,22.62h14c17.45,0,33.39-8.9,39.38-22.62a74.82,74.82,0,0,0,0-59.22c-6-13.73-21.94-22.62-39.38-22.62H243c-17.45,0-33.39,8.9-39.38,22.62A73.89,73.89,0,0,0,197.48,191.73Z"/><path class="cls-30" d="M200.14,191.73a70.14,70.14,0,0,0,5.8,28.11c5.69,13,20.83,21.48,37.39,21.48h13.34c16.56,0,31.7-8.45,37.39-21.48a71,71,0,0,0,0-56.22c-5.69-13-20.83-21.48-37.39-21.48H243.33c-16.56,0-31.7,8.45-37.39,21.48A70.15,70.15,0,0,0,200.14,191.73Z"/><path d="M205,191.73a63.3,63.3,0,0,0,5.23,25.36c5.14,11.76,18.79,19.38,33.74,19.38h12c14.95,0,28.6-7.62,33.74-19.38a64.1,64.1,0,0,0,0-50.73C284.62,154.61,271,147,256,147H244c-14.95,0-28.6,7.62-33.74,19.38A63.3,63.3,0,0,0,205,191.73Z"/><path class="cls-31" d="M207.81,191.73a59.35,59.35,0,0,0,4.91,23.78c4.82,11,17.62,18.17,31.64,18.17h11.28c14,0,26.82-7.15,31.64-18.17a60.11,60.11,0,0,0,0-47.57c-4.82-11-17.62-18.17-31.64-18.17H244.36c-14,0-26.82,7.15-31.64,18.17A59.35,59.35,0,0,0,207.81,191.73Z"/><path class="cls-32" d="M241.39,182.18h17.23c12.49,0,24.33,2.57,33.51,7a59.15,59.15,0,0,0-4.84-21.25c-4.82-11-17.62-18.17-31.64-18.17H244.36c-14,0-26.82,7.15-31.64,18.17a59.17,59.17,0,0,0-4.84,21.25C217.05,184.75,228.89,182.18,241.39,182.18Z"/><path class="cls-32" d="M215.89,208.91a51.11,51.11,0,0,1,5.87-23.78c5.77-11,21.1-18.17,37.88-18.17h13.51a57.1,57.1,0,0,1,14.48,1.85c-.12-.29-.23-.58-.35-.86-4.82-11-17.62-18.17-31.64-18.17H244.36c-14,0-26.82,7.15-31.64,18.17a60.1,60.1,0,0,0,0,47.57,26.28,26.28,0,0,0,5.24,7.72A50.8,50.8,0,0,1,215.89,208.91Z"/><path class="cls-8" d="M249.45,344.89v56H250a136.15,136.15,0,0,0,47-8.46Z"/><path class="cls-21" d="M254.21,399.15h-8.43V363.38c0-2.33,1.89-18.49,4.21-18.49h0c2.33,0,4.21,16.16,4.21,18.49Z"/><path class="cls-8" d="M254.21,363.38c0-1.84-1.17-12.28-2.81-16.61-.14-.37-.69,16.45-.69,16.84v35.53h3.5Z"/><ellipse cx="250" cy="471.2" rx="6.64" ry="13.8"/><path class="cls-19" d="M257.57,471.89H242.43V382a7.57,7.57,0,0,1,7.57-7.57h0a7.57,7.57,0,0,1,7.57,7.57Z"/><path class="cls-8" d="M257.57,382a7.54,7.54,0,0,0-1.87-5,3.26,3.26,0,0,0-5.7,2.15v92.72h7.57Z"/><path class="cls-17" d="M244.68,381.17a7.56,7.56,0,0,1,3.86-6.6,7.57,7.57,0,0,0-6.11,7.43v89.89h2.24Z"/></g></g></svg>