<svg xmlns="http://www.w3.org/2000/svg" xmlns:xlink="http://www.w3.org/1999/xlink" viewBox="0 0 500 500"><defs><style>.cls-1{isolation:isolate;}.cls-10,.cls-11,.cls-12,.cls-13,.cls-14,.cls-15,.cls-17,.cls-18,.cls-2,.cls-20,.cls-21,.cls-22,.cls-23,.cls-24,.cls-25,.cls-3,.cls-4,.cls-42,.cls-43,.cls-44,.cls-45,.cls-46,.cls-47,.cls-48,.cls-49,.cls-5,.cls-50,.cls-6,.cls-7,.cls-8,.cls-9{fill-rule:evenodd;}.cls-2{fill:url(#_72);}.cls-10,.cls-11,.cls-20,.cls-21,.cls-23,.cls-26,.cls-28,.cls-3,.cls-30,.cls-32,.cls-34,.cls-36,.cls-38,.cls-4,.cls-40,.cls-43,.cls-6,.cls-7,.cls-9{mix-blend-mode:multiply;}.cls-3{fill:url(#_3);}.cls-4{fill:url(#_214);}.cls-5{fill:url(#_72-2);}.cls-6{fill:url(#_3-2);}.cls-7{fill:url(#_214-2);}.cls-8{fill:url(#_72-3);}.cls-9{fill:url(#_3-3);}.cls-10,.cls-11,.cls-20,.cls-21,.cls-23{opacity:0.71;}.cls-10{fill:url(#_4);}.cls-11{fill:url(#_278);}.cls-12{fill:#fff;}.cls-13{fill:url(#_161);}.cls-14{fill:url(#_162);}.cls-15{fill:url(#_43);}.cls-16{fill:url(#_8);}.cls-17{fill:url(#_72-4);}.cls-18{fill:url(#_5);}.cls-19{fill:url(#_416);}.cls-20{fill:url(#_4-2);}.cls-21{fill:url(#_4-3);}.cls-22,.cls-42{opacity:0.52;}.cls-22,.cls-42,.cls-47,.cls-48,.cls-49,.cls-50{mix-blend-mode:screen;}.cls-22{fill:url(#_320);}.cls-23{fill:#dccbdf;}.cls-24{fill:url(#_416-2);}.cls-25{fill:url(#_161-2);}.cls-26{fill:url(#_3-4);}.cls-27{fill:url(#_2);}.cls-28{fill:url(#_3-5);}.cls-29{fill:url(#_2-2);}.cls-30{fill:url(#_3-6);}.cls-31{fill:url(#_2-3);}.cls-32{fill:url(#_3-7);}.cls-33{fill:url(#_2-4);}.cls-34{fill:url(#_3-8);}.cls-35{fill:url(#_2-5);}.cls-36{fill:url(#_3-9);}.cls-37{fill:url(#_2-6);}.cls-38{fill:url(#_3-10);}.cls-39{fill:url(#_2-7);}.cls-40{fill:url(#_3-11);}.cls-41{fill:url(#_2-8);}.cls-42{fill:url(#_320-2);}.cls-43{fill:url(#_214-3);}.cls-44{fill:url(#_43-2);}.cls-45{fill:url(#_43-3);}.cls-46{fill:url(#_43-4);}.cls-47,.cls-48,.cls-49,.cls-50{opacity:0.5;}.cls-47{fill:url(#_213);}.cls-48{fill:url(#_213-2);}.cls-49{fill:url(#_213-3);}.cls-50{fill:url(#_213-4);}</style><radialGradient id="_72" cx="-348.69" cy="373.92" r="134.64" gradientTransform="translate(327.1 -77.27) scale(0.74 0.92)" gradientUnits="userSpaceOnUse"><stop offset="0" stop-color="#b0b4bc"/><stop offset="0.14" stop-color="#aaadbc"/><stop offset="0.34" stop-color="#9a9abe"/><stop offset="0.57" stop-color="#807bbf"/><stop offset="0.75" stop-color="#685ec1"/><stop offset="0.97" stop-color="#7a75d7"/></radialGradient><linearGradient id="_3" x1="112.4" y1="356.77" x2="198.03" y2="356.77" gradientUnits="userSpaceOnUse"><stop offset="0" stop-color="#b2a5da"/><stop offset="0.41" stop-color="#a585bd"/><stop offset="0.76" stop-color="#9c71aa"/><stop offset="1" stop-color="#9969a3"/></linearGradient><linearGradient id="_214" x1="76.26" y1="354.16" x2="162.58" y2="354.16" gradientUnits="userSpaceOnUse"><stop offset="0" stop-color="#e7e3f4"/><stop offset="0.07" stop-color="#dfd6ec"/><stop offset="0.37" stop-color="#c1a7cd"/><stop offset="0.64" stop-color="#ac85b7"/><stop offset="0.86" stop-color="#9f71a9"/><stop offset="1" stop-color="#9a69a4"/></linearGradient><radialGradient id="_72-2" cx="2637.2" cy="373.92" r="134.64" gradientTransform="matrix(-0.74, 0, 0, 0.92, 2375.41, -77.27)" xlink:href="#_72"/><linearGradient id="_3-2" x1="2384.06" y1="356.77" x2="2469.69" y2="356.77" gradientTransform="matrix(-1, 0, 0, 1, 2753.99, 0)" xlink:href="#_3"/><linearGradient id="_214-2" x1="2347.92" y1="354.16" x2="2434.25" y2="354.16" gradientTransform="matrix(-1, 0, 0, 1, 2753.99, 0)" xlink:href="#_214"/><radialGradient id="_72-3" cx="-112.66" cy="392.43" r="146.26" xlink:href="#_72"/><linearGradient id="_3-3" x1="259.89" y1="315.45" x2="204.42" y2="480.21" xlink:href="#_3"/><linearGradient id="_4" x1="243.96" y1="281.51" x2="243.96" y2="314.09" gradientUnits="userSpaceOnUse"><stop offset="0" stop-color="#9969a3"/><stop offset="0.13" stop-color="#a175aa"/><stop offset="0.38" stop-color="#b795be"/><stop offset="0.69" stop-color="#d9c8dd"/><stop offset="1" stop-color="#fff"/></linearGradient><linearGradient id="_278" x1="207.85" y1="376.42" x2="289.44" y2="376.42" gradientUnits="userSpaceOnUse"><stop offset="0" stop-color="#7a69a3"/><stop offset="0.13" stop-color="#8575aa"/><stop offset="0.38" stop-color="#a195be"/><stop offset="0.69" stop-color="#cec8dd"/><stop offset="1" stop-color="#fff"/></linearGradient><radialGradient id="_161" cx="311.04" cy="368.83" r="236.63" gradientTransform="translate(9.84 10.2) scale(0.96 0.96)" gradientUnits="userSpaceOnUse"><stop offset="0.01" stop-color="#dd5438"/><stop offset="0.21" stop-color="#da5139"/><stop offset="0.38" stop-color="#d0483d"/><stop offset="0.52" stop-color="#c03842"/><stop offset="0.66" stop-color="#a8224b"/><stop offset="0.79" stop-color="#8b0555"/><stop offset="0.81" stop-color="#850057"/><stop offset="1" stop-color="#b83145"/></radialGradient><radialGradient id="_162" cx="305.17" cy="112.35" r="184.26" gradientTransform="translate(9.84 10.2) scale(0.96 0.96)" gradientUnits="userSpaceOnUse"><stop offset="0" stop-color="#ffd5bd"/><stop offset="0.1" stop-color="#f8d0bf"/><stop offset="0.25" stop-color="#e5c2c6"/><stop offset="0.43" stop-color="#c5abd2"/><stop offset="0.63" stop-color="#9a8ce1"/><stop offset="0.75" stop-color="#7a75ed"/><stop offset="0.97" stop-color="#7a82ed"/></radialGradient><linearGradient id="_43" x1="218.79" y1="57.51" x2="272.95" y2="57.51" gradientUnits="userSpaceOnUse"><stop offset="0" stop-color="#590043"/><stop offset="0.06" stop-color="#5b0044"/><stop offset="0.47" stop-color="#650046"/><stop offset="0.99" stop-color="#680047"/></linearGradient><radialGradient id="_8" cx="2687.11" cy="126.62" r="124.06" gradientTransform="matrix(-0.96, 0, 0, 0.96, 2840.51, 10.2)" gradientUnits="userSpaceOnUse"><stop offset="0.03" stop-color="#6a64b7"/><stop offset="0.94" stop-color="#5a4fbb"/></radialGradient><radialGradient id="_72-4" cx="2687.17" cy="117.4" r="126.43" gradientTransform="matrix(-0.96, 0, 0, 0.96, 2840.51, 10.2)" xlink:href="#_72"/><radialGradient id="_5" cx="2709.72" cy="211.04" r="94.17" gradientTransform="matrix(-0.96, 0, 0, 0.96, 2840.51, 10.2)" gradientUnits="userSpaceOnUse"><stop offset="0.03" stop-color="#8d37e1"/><stop offset="0.94" stop-color="#3f32b3"/></radialGradient><radialGradient id="_416" cx="2694.09" cy="129.89" r="77.63" gradientTransform="matrix(-0.96, 0, 0, 0.96, 2840.51, 10.2)" gradientUnits="userSpaceOnUse"><stop offset="0.01" stop-color="#fc0"/><stop offset="0.22" stop-color="#fec902"/><stop offset="0.41" stop-color="#fcbe08"/><stop offset="0.58" stop-color="#f8ad13"/><stop offset="0.75" stop-color="#f29422"/><stop offset="0.91" stop-color="#ea7435"/><stop offset="1" stop-color="#e55e42"/></radialGradient><linearGradient id="_4-2" x1="2705.51" y1="157.57" x2="2705.51" y2="88.96" gradientTransform="matrix(-1, 0, 0, 1, 2951.12, 0)" xlink:href="#_4"/><linearGradient id="_4-3" x1="221.62" y1="225.25" x2="263.72" y2="108.12" xlink:href="#_4"/><linearGradient id="_320" x1="2638.36" y1="110.12" x2="2688.18" y2="110.12" gradientTransform="matrix(-1, 0, 0, 1, 2951.12, 0)" gradientUnits="userSpaceOnUse"><stop offset="0" stop-color="#fff"/><stop offset="1" stop-color="#623964"/></linearGradient><radialGradient id="_416-2" cx="245.61" cy="28.95" r="23.91" gradientTransform="translate(9.84 10.2) scale(0.96 0.96)" xlink:href="#_416"/><radialGradient id="_161-2" cx="399.64" cy="208.16" r="366.81" xlink:href="#_161"/><linearGradient id="_3-4" x1="240.07" y1="85.85" x2="249.33" y2="85.85" xlink:href="#_3"/><linearGradient id="_2" x1="241.52" y1="85.85" x2="248.88" y2="85.85" gradientUnits="userSpaceOnUse"><stop offset="0" stop-color="#5b58a2"/><stop offset="0.44" stop-color="#5f59a2"/><stop offset="0.85" stop-color="#6a5ca1"/><stop offset="0.99" stop-color="#705ea1"/></linearGradient><linearGradient id="_3-5" x1="179.41" y1="146.95" x2="188.68" y2="146.95" xlink:href="#_3"/><linearGradient id="_2-2" x1="180.87" y1="146.95" x2="188.22" y2="146.95" xlink:href="#_2"/><linearGradient id="_3-6" x1="302.93" y1="146.95" x2="312.2" y2="146.95" xlink:href="#_3"/><linearGradient id="_2-3" x1="304.39" y1="146.95" x2="311.74" y2="146.95" xlink:href="#_2"/><linearGradient id="_3-7" x1="287.85" y1="189.73" x2="297.12" y2="189.73" xlink:href="#_3"/><linearGradient id="_2-4" x1="289.3" y1="189.73" x2="296.66" y2="189.73" xlink:href="#_2"/><linearGradient id="_3-8" x1="190.28" y1="186.05" x2="199.55" y2="186.05" xlink:href="#_3"/><linearGradient id="_2-5" x1="191.74" y1="186.05" x2="199.09" y2="186.05" xlink:href="#_2"/><linearGradient id="_3-9" x1="199.09" y1="103.02" x2="208.36" y2="103.02" xlink:href="#_3"/><linearGradient id="_2-6" x1="200.55" y1="103.02" x2="207.9" y2="103.02" xlink:href="#_2"/><linearGradient id="_3-10" x1="286.06" y1="107.18" x2="295.33" y2="107.18" xlink:href="#_3"/><linearGradient id="_2-7" x1="287.52" y1="107.18" x2="294.87" y2="107.18" xlink:href="#_2"/><linearGradient id="_3-11" x1="240.07" y1="213.64" x2="249.33" y2="213.64" xlink:href="#_3"/><linearGradient id="_2-8" x1="241.52" y1="213.64" x2="248.88" y2="213.64" xlink:href="#_2"/><linearGradient id="_320-2" x1="116.83" y1="134.58" x2="203.73" y2="134.58" gradientTransform="matrix(1, 0, 0, 1, 0, 0)" xlink:href="#_320"/><linearGradient id="_214-3" x1="234.98" y1="150" x2="234.98" y2="240.26" xlink:href="#_214"/><linearGradient id="_43-2" x1="122.2" y1="247.22" x2="138.98" y2="247.22" xlink:href="#_43"/><linearGradient id="_43-3" x1="241.61" y1="260.12" x2="254.36" y2="260.12" xlink:href="#_43"/><linearGradient id="_43-4" x1="371" y1="244.63" x2="379.9" y2="244.63" xlink:href="#_43"/><linearGradient id="_213" x1="267.81" y1="260.22" x2="228.04" y2="260.22" gradientUnits="userSpaceOnUse"><stop offset="0" stop-color="#fff"/><stop offset="1" stop-color="#660f0f"/></linearGradient><linearGradient id="_213-2" x1="149.89" y1="247.81" x2="107.95" y2="247.81" xlink:href="#_213"/><linearGradient id="_213-3" x1="394.85" y1="243.9" x2="358.45" y2="243.9" xlink:href="#_213"/><linearGradient id="_213-4" x1="542.51" y1="253.36" x2="137.77" y2="253.36" xlink:href="#_213"/></defs><title>ships</title><g class="cls-1"><g id="Layer_1" data-name="Layer 1"><path class="cls-2" d="M198,270.44c-22.48,20.94-39.62,48.47-52.45,75.56h0c-24.42,51.6-33.17,101.63-33.17,101.63S84.79,389.3,83,354.19v0c-.08-1.62-.12-3.18-.08-4.68.37-16.91,8-58.22,43.25-83.59a94.55,94.55,0,0,1,8.05-5.22l22.83,3.49,11.32,1.73Z"/><path class="cls-3" d="M198,270.44c-65.27,60.81-85.63,177.21-85.63,177.21C115.56,365.56,124,342.1,124,342.1c16.32-39.7,32.63-63,44.39-76.2Z"/><path class="cls-4" d="M147.9,341.21l.36-.73q1.07-2.17,2.18-4.33l.24-.47q2.5-4.86,5.2-9.7l.31-.56q2.72-4.84,5.64-9.62l.2-.32q1.33-2.16,2.7-4.3l.45-.7q2.95-4.57,6.1-9l.61-.85q1.32-1.85,2.67-3.67l.59-.8q1.61-2.15,3.27-4.26l.38-.47q1.44-1.82,2.93-3.61l.91-1.09q1.42-1.68,2.87-3.33l.6-.69q1.72-1.94,3.49-3.82l.89-.93q1.38-1.46,2.8-2.88l1.05-1.05c1.23-1.21,2.46-2.41,3.72-3.58l-41-6.27-22.83-3.49a94.55,94.55,0,0,0-8.05,5.22c13.06,5.12,14.15,20.88,12.57,33.84C102.4,376.23,83,354.17,83,354.17v0c1.79,35.1,29.39,93.45,29.39,93.45s8.75-50,33.18-101.65h0Q146.72,343.61,147.9,341.21Z"/><path class="cls-5" d="M284.3,270.44c22.48,20.94,39.61,48.47,52.45,75.56h0c24.42,51.6,33.17,101.63,33.17,101.63s27.6-58.35,29.39-93.45v0c.08-1.62.12-3.18.08-4.68-.37-16.91-8-58.22-43.25-83.59a94.75,94.75,0,0,0-8.05-5.22l-22.83,3.49L314,265.9Z"/><path class="cls-6" d="M284.3,270.44c65.27,60.81,85.63,177.21,85.63,177.21-3.16-82.09-11.58-105.54-11.58-105.54-16.32-39.7-32.64-63-44.39-76.2Z"/><path class="cls-7" d="M334.43,341.21l-.36-.73q-1.07-2.17-2.18-4.33l-.24-.47q-2.5-4.86-5.2-9.7l-.31-.56q-2.72-4.84-5.64-9.62l-.2-.32q-1.33-2.16-2.7-4.3l-.45-.7q-2.95-4.57-6.1-9l-.61-.85q-1.32-1.85-2.67-3.67l-.59-.8q-1.61-2.15-3.27-4.26l-.38-.47q-1.44-1.82-2.93-3.61l-.91-1.09q-1.42-1.68-2.87-3.33l-.6-.69q-1.72-1.94-3.49-3.82l-.89-.93q-1.38-1.46-2.8-2.88L288,274c-1.23-1.21-2.46-2.41-3.72-3.58l41-6.27,22.83-3.49a94.75,94.75,0,0,1,8.05,5.22C343.1,271,342,286.79,343.58,299.74c36.35,76.49,55.73,54.43,55.73,54.43v0c-1.79,35.1-29.39,93.45-29.39,93.45s-8.75-50-33.18-101.65h0Q335.61,343.61,334.43,341.21Z"/><path class="cls-8" d="M288.68,376.41c-5.14,46.86-39.1,98.77-44.9,107.35V485l-.07-.1-.36-.52-.42.63v-1.24c-5.8-8.59-39.77-60.5-44.9-107.35,0,0-1.22-19.06,8-57.87q1.85-7.8,4.3-16.68c2.83-10.27,6.33-21.6,10.61-34h44.9A271.64,271.64,0,0,1,277.62,302c1.58,5.69,2.92,11.23,4.07,16.56a.1.1,0,0,0,0,.05C288.85,351.63,288.68,376.41,288.68,376.41Z"/><path class="cls-9" d="M288.68,376.41c-5.14,46.86-39.1,98.77-44.9,107.35V485l-.43-.63-.42.63v-1.24c-5.8-8.59-39.77-60.5-44.9-107.35,0,0-1.22-19.06,8-57.87C204.17,385.1,244.23,389,244.23,389s45.48-13.84,37.47-70.39C288.85,351.63,288.68,376.41,288.68,376.41Z"/><path class="cls-10" d="M277.62,302l-.26-.12c-28-12.86-67.06,0-67.06,0,2.83-10.27,6.33-21.6,10.61-34h44.9A271.64,271.64,0,0,1,277.62,302Z"/><path class="cls-11" d="M244.3,267.83l-.52,215.93s0,.4-.07,1.13l-.36-.52-.42.63v-1.24c-5.8-8.59-39.77-60.5-44.9-107.35,0,0-1.22-19.06,8-57.87q1.85-7.8,4.3-16.68c2.83-10.27,6.33-21.6,10.61-34Z"/><path class="cls-12" d="M245.56,324.18c-2,21.64,1,30.08,1,30.08C259.58,331.86,245.56,324.18,245.56,324.18Z"/><path class="cls-13" d="M398.5,255.91s-39.38,24.44-152.77,24.44S92.95,255.91,92.95,255.91l2-39.38c8.49-7.47,21.61-11.54,21.61-11.54l.8,12.22c80.12,14.94,96,14.94,128.33,14.94s48.21,0,128.33-14.94l.81-12.22a41.07,41.07,0,0,1,21.36,9.52Z"/><path class="cls-14" d="M374.05,217.21c-37.79,10.63-96,15.62-128.33,15.62s-90.54-5-128.33-15.62c0,0-17.6-142.62,101.4-161.19a182.81,182.81,0,0,1,54.16,0C391.63,74.84,374.05,217.21,374.05,217.21Z"/><path class="cls-15" d="M273,56.06c-2.63,5.89-49.46,7.28-54.16,0v0a182.81,182.81,0,0,1,54.16,0Z"/><circle class="cls-16" cx="245.2" cy="154.99" r="70.09"/><path class="cls-17" d="M175.11,149.4c2.9,41.71,31.38,70.09,70.09,70.09a70.09,70.09,0,0,0,70.09-70.09c0-38.71-31.38-75-70.09-75S172.42,110.78,175.11,149.4Z"/><path class="cls-18" d="M193.6,149.39c0,28.5,19.17,55.52,47.61,57.4,39.82,2.62,53.94-27.28,55.5-54.38.06-1,.09-2,.09-3a51.6,51.6,0,1,0-103.2,0Z"/><circle class="cls-19" cx="245.2" cy="149.4" r="43.86"/><path class="cls-20" d="M202.56,159.71c-.92-15.91,7.78-41.87,41.24-39.23,41,3.22,44,39.23,44,39.23l8.87-7.31c.06-1,.09-2,.09-3a51.6,51.6,0,0,0-102.38-9.18Z"/><path class="cls-21" d="M315.29,159.72s-10.53,57.69-70.09,59.77c-61.7,2.15-70.09-66.43-70.09-66.43s-16.64,78.08,67.9,78.08C307.77,231.13,315.29,159.72,315.29,159.72Z"/><path class="cls-12" d="M266.46,142c.81,11.38-14.83,5.48-16.45,2.58s2.26-6.77,5.8-7.1S266.14,137.52,266.46,142Z"/><path class="cls-22" d="M272.83,82.82s28.9,9.67,39.93,48.8L299,137.42S296.7,113.34,262.94,97Z"/><path class="cls-23" d="M191.67,143.81l-14,3.15s-4.94,60,54,71.31l1.14-11.3S190.81,195.19,191.67,143.81Z"/><path class="cls-24" d="M268.32,58.39c0-28.57-10.63-43.39-22.9-43.39s-22.9,14.81-22.9,43.39c0,0,5.88,2.55,22.6,2.55S268.32,58.39,268.32,58.39Z"/><path class="cls-12" d="M247.76,18.46c-1.58,3.17-.23,13.58,8.83,20.82,0,0,4.33-2.34,2.72-10.41S247.76,18.46,247.76,18.46Z"/><path class="cls-12" d="M287.85,90.72c-7.67,3.43,11.61,18.61,15.08,17.34,0,0-1.52-3.41-6.72-9.15C290.11,92.19,287.85,90.72,287.85,90.72Z"/><path class="cls-25" d="M396.23,214.51c-82.39,35.31-229.61,32.24-301.24,2,8.49-7.47,21.61-11.54,21.61-11.54l.8,12.22c80.12,14.94,96,14.94,128.33,14.94s48.21,0,128.33-14.94l.81-12.22A41.07,41.07,0,0,1,396.23,214.51Z"/><circle class="cls-26" cx="244.7" cy="85.85" r="4.63"/><circle class="cls-27" cx="245.2" cy="85.85" r="3.68"/><circle class="cls-28" cx="184.04" cy="146.95" r="4.63"/><circle class="cls-29" cx="184.54" cy="146.95" r="3.68"/><circle class="cls-30" cx="307.56" cy="146.95" r="4.63"/><circle class="cls-31" cx="308.06" cy="146.95" r="3.68"/><circle class="cls-32" cx="292.48" cy="189.73" r="4.63"/><circle class="cls-33" cx="292.98" cy="189.73" r="3.68"/><circle class="cls-34" cx="194.92" cy="186.05" r="4.63"/><circle class="cls-35" cx="195.42" cy="186.05" r="3.68"/><ellipse class="cls-36" cx="203.73" cy="103.02" rx="4.63" ry="4.16"/><ellipse class="cls-37" cx="204.22" cy="103.02" rx="3.68" ry="3.3"/><circle class="cls-38" cx="290.7" cy="107.18" r="4.63"/><circle class="cls-39" cx="291.2" cy="107.18" r="3.68"/><circle class="cls-40" cx="244.7" cy="213.64" r="4.63"/><circle class="cls-41" cx="245.2" cy="213.64" r="3.68"/><path class="cls-42" d="M203.73,59.21C148.4,75.75,120.83,156.06,116.92,210c0,0-2.24-52.27,16.06-91.9C153.53,73.57,203.73,59.21,203.73,59.21Z"/><path class="cls-43" d="M144.21,128.75c-22.09,46.5-22.92,89.51-22.92,89.51l-3.9-1.06-.8-12.22S101.44,210.42,95,216.53c0,0,28.74,16.3,129.35,23.56,0,0,52.17,2.58,149.72-22.88l.92-26.52s.83,14.29-14.84,23c-3.71,2-120.06,32.32-203.59,5.85C126.06,209.82,144.21,128.75,144.21,128.75Z"/><path class="cls-12" d="M307.57,84.9c3.86,20.08,14,34.54,19.55,32.5s7.38-20.43,0-27.87S306.09,77.21,307.57,84.9Z"/><path class="cls-44" d="M124.59,226.24s1.3,15.68-4.42,40.1l6.89,1.85s-3.73-25.78,2.64-40.76Z"/><path class="cls-45" d="M240.07,239.88s3.62,4.71,0,40.47h7.24s-3.62-23.73-1.58-40.27Z"/><path class="cls-46" d="M375,222.54s-2.12,23.38,0,42.72l-5.05,1.47s2.15-22.4,0-42.83Z"/><path class="cls-47" d="M245.72,240.08s5.38,17.36,1.58,40.27c0,0-2.8-15.09-2.18-26.09S245.72,240.08,245.72,240.08Z"/><path class="cls-48" d="M129.69,227.43s-1.13,21.92-2.64,40.76c0,0-1.8-13.68-1-22.13A138.35,138.35,0,0,1,129.69,227.43Z"/><path class="cls-49" d="M375,222.54a182.47,182.47,0,0,1,2.25,22.62c.68,14.26-2.24,20.1-2.24,20.1s-1.24-13.75-.92-23.72S375,222.54,375,222.54Z"/><path class="cls-50" d="M310.76,235.92c10.33,11.16,8.52,26.76,8.52,31.3s-7.08,9.9-7.08,9.9l35.45-5.2s-4.6,3.92-6.87-10.12-1.66-26.59,6.87-32.19Z"/><path class="cls-12" d="M310.76,235.92c8.58-6.23,36.88-6.32,36.88-6.32s-6.76,3.22-18.44,4.92A109.27,109.27,0,0,1,310.76,235.92Z"/></g></g></svg>